<svg xmlns="http://www.w3.org/2000/svg" viewBox="0 0 64 64" width="64" height="64">
  <defs>
    <linearGradient id="g" x1="0" y1="0" x2="1" y2="1">
      <stop offset="0" stop-color="#f59324"/>
      <stop offset="0.55" stop-color="#c2410c"/>
      <stop offset="1" stop-color="#7a1e27"/>
    </linearGradient>
  </defs>
  <rect width="64" height="64" rx="16" fill="url(#g)"/>
  <circle cx="32" cy="32" r="24" fill="none" stroke="#e9d49a" stroke-width="1.5" opacity="0.7"/>
  <!-- Diya flame -->
  <path d="M32 14c4 5 6 8.5 6 12.5a6 6 0 0 1-12 0c0-4 2-7.5 6-12.5z" fill="#fff7ed"/>
  <path d="M32 20c2.2 2.8 3.2 4.7 3.2 6.8a3.2 3.2 0 0 1-6.4 0c0-2.1 1-4 3.2-6.8z" fill="#f59324"/>
  <!-- Diya base -->
  <path d="M18 40h28a14 14 0 0 1-28 0z" fill="#e9d49a"/>
  <path d="M20 40h24a12 12 0 0 1-24 0z" fill="#c8a248"/>
</svg>
